<?xml version="1.0" standalone="no"?>
<!DOCTYPE svg PUBLIC "-//W3C//DTD SVG 20010904//EN"
 "http://www.w3.org/TR/2001/REC-SVG-20010904/DTD/svg10.dtd">
<svg version="1.0" xmlns="http://www.w3.org/2000/svg"
 width="200.000000pt" height="200.000000pt" viewBox="0 0 200.000000 200.000000"
 preserveAspectRatio="xMidYMid meet">
<metadata>
Created by potrace 1.14, written by Peter Selinger 2001-2017
</metadata>
<g transform="translate(0.000000,200.000000) scale(0.100000,-0.100000)"
fill="#000000" stroke="none">
<path d="M1555 1988 c-34 -12 -72 -43 -88 -73 -11 -22 -146 -348 -179 -433
-11 -31 -25 -51 -31 -49 -163 64 -324 134 -330 143 -14 24 -65 54 -101 60 -43
6 -96 -25 -96 -57 0 -11 -7 -19 -16 -19 -8 0 -28 -13 -44 -28 -16 -16 -43 -35
-60 -42 -19 -8 -36 -24 -41 -40 -6 -15 -22 -31 -40 -37 -17 -7 -33 -21 -36
-32 -3 -12 -17 -22 -34 -26 -30 -7 -73 -51 -63 -66 3 -5 -4 -9 -15 -9 -11 0
-29 -12 -41 -27 -12 -15 -36 -32 -53 -38 -21 -6 -37 -21 -47 -42 -8 -17 -25
-34 -38 -38 -13 -3 -30 -21 -39 -40 -9 -19 -19 -32 -23 -30 -11 7 -60 -42 -60
-60 0 -8 -7 -15 -15 -15 -9 0 -27 -11 -41 -25 -32 -32 -28 -84 8 -122 12 -13
22 -33 20 -43 -2 -10 2 -21 7 -24 7 -5 6 -15 -1 -32 -9 -20 -9 -27 3 -38 8 -7
124 -87 259 -178 135 -91 363 -244 508 -342 218 -147 270 -178 307 -183 34 -4
52 0 73 13 15 9 140 129 277 265 138 136 298 294 356 351 58 57 113 114 121
128 13 20 15 55 14 166 -1 169 -1 168 -123 225 l-82 39 30 67 c37 83 85 205
151 382 55 151 56 176 10 228 -66 71 -188 123 -302 128 -41 2 -88 -1 -105 -7z
m-716 -385 c-1 -14 -59 -54 -69 -48 -18 11 -11 35 13 45 28 11 57 12 56 3z
m-109 -87 c0 -15 -37 -32 -47 -22 -9 8 17 36 33 36 8 0 14 -6 14 -14z m-80
-59 c0 -23 -34 -47 -50 -37 -12 7 -11 12 4 29 22 24 46 28 46 8z m-80 -73 c0
-8 -32 -33 -42 -34 -13 0 -9 28 5 33 18 8 37 8 37 1z m-80 -61 c0 -12 -33 -43
-47 -43 -19 0 -16 27 5 39 20 12 42 14 42 4z m-90 -76 c0 -13 -39 -41 -47 -34
-5 5 33 47 42 47 3 0 5 -6 5 -13z m-80 -64 c0 -12 -33 -43 -46 -43 -15 0 -7
30 10 42 14 10 36 10 36 1z m-102 -96 c-13 -13 -25 -20 -26 -15 -5 13 18 38
35 38 9 0 7 -7 -9 -23z m-68 -50 c0 -2 -9 -12 -20 -22 -24 -21 -27 -14 -4 9
15 15 24 20 24 13z m-94 -153 c-13 -12 -16 -11 -21 6 -3 11 -3 29 0 41 7 20 8
20 21 -6 12 -23 12 -29 0 -41z"/>
</g>
</svg>
